{"title":"Love Season 1-2 S01-S02 1080p WEBRip x264-MiXED [RiCK]","magnet":"magnet:?xt=urn:btih:9c362109bb367ad7090eb9601120eef41af260cc&dn=Love+Season+1-2+S01-S02+1080p+WEBRip+x264-MiXED+%5BRiCK%5D&tr=udp%3A%2F%2Ftracker.leechers-paradise.org%3A6969&tr=udp%3A%2F%2Fzer0day.ch%3A1337&tr=udp%3A%2F%2Fopen.demonii.com%3A1337&tr=udp%3A%2F%2Ftracker.coppersurfer.tk%3A6969&tr=udp%3A%2F%2Fexodus.desync.com%3A6969","uploader":"Bläddra __rick_","categoryP":"video","categoryS":"hd___tv_shows","size":"61804326076","seeders":"3","leechers":"1","description":"A program that follows a couple who must navigate the exhilarations and humiliations of intimacy, commitment and other things they were hoping to avoid.\r\n\r\nLove.S02E08.1080p.WEBrip.x264-SKGTV.mkv\r\nFormat                                   : Matroska\r\nFile size                                : 1.95 GiB\r\nDuration                                 : 28 min 20 s\r\nOverall bit rate                         : 9 838 kb/s\r\n\r\nVideo\r\nFormat profile                           : <a class=\"__cf_email__\" href=\"/cdn-cgi/l/email-protection\" data-cfemail=\"d79fbeb0bf979be3f9e6\">[email&#xA0;protected]</a><script data-cfhash=\"f9e31\" type=\"text/javascript\">/* <![CDATA[ */!function(t,e,r,n,c,a,p){try{t=document.currentScript||function(){for(t=document.getElementsByTagName('script'),e=t.length;e--;)if(t[e].getAttribute('data-cfhash'))return t[e]}();if(t&&(c=t.previousSibling)){p=t.parentNode;if(a=c.getAttribute('data-cfemail')){for(e='',r='0x'+a.substr(0,2)|0,n=2;a.length-n;n+=2)e+='%'+('0'+('0x'+a.substr(n,2)^r).toString(16)).slice(-2);p.replaceChild(document.createTextNode(decodeURIComponent(e)),c)}p.removeChild(t)}}catch(u){}}()/* ]]> */</script>\r\nFormat settings, CABAC                   : Yes\r\nFormat settings, ReFrames                : 4 frames\r\nCodec ID                                 : V_MPEG4/ISO/AVC\r\nDuration                                 : 28 min 20 s\r\nBit rate                                 : 9 197 kb/s\r\nWidth                                    : 1 920 pixels\r\nHeight                                   : 1 080 pixels\r\nDisplay aspect ratio                     : 16:9\r\nFrame rate mode                          : Constant\r\nFrame rate                               : 23.976\r\nStream size                              : 1.82 GiB (93%)\r\nLanguage                                 : English\r\nDefault                                  : Yes\r\nForced                                   : No\r\nColor range                              : Limited\r\nMatrix coefficients                      : BT.709\r\n\r\nAudio\r\nID                                       : 2\r\nFormat                                   : AC-3\r\nFormat/Info                              : Audio Coding 3\r\nMode extension                           : CM (complete main)\r\nFormat settings, Endianness              : Big\r\nCodec ID                                 : A_AC3\r\nDuration                                 : 28 min 20 s\r\nBit rate mode                            : Constant\r\nBit rate                                 : 640 kb/s\r\nChannel(s)                               : 6 channels\r\nChannel positions                        : Front: L C R, Side: L R, LFE\r\nSampling rate                            : 48.0 kHz\r\nFrame rate                               : 31.250 FPS (1536 spf)\r\nBit depth                                : 16 bits\r\nCompression mode                         : Lossy\r\nStream size                              : 130 MiB (7%)\r\nLanguage                                 : English\r\nDefault                                  : Yes\r\nForced                                   : No\r\n\r\nScreenshots:\r\n <a href=\"\nhttps://imgpile.com/i/nThrWx\" rel=\"nofollow\" target=\"_NEW\">\nhttps://imgpile.com/i/nThrWx</a> <a href=\"\nhttps://imgpile.com/i/nTh81j\" rel=\"nofollow\" target=\"_NEW\">\nhttps://imgpile.com/i/nTh81j</a> <a href=\"\nhttps://imgpile.com/i/nThVKo\" rel=\"nofollow\" target=\"_NEW\">\nhttps://imgpile.com/i/nThVKo</a>","last_updated":"2017-08-13T12:02:30.347Z","parsed":{"xt":"urn:btih:9c362109bb367ad7090eb9601120eef41af260cc","dn":"Love Season 1-2 S01-S02 1080p WEBRip x264-MiXED [RiCK]","tr":["udp://exodus.desync.com:6969","udp://open.demonii.com:1337","udp://tracker.coppersurfer.tk:6969","udp://tracker.leechers-paradise.org:6969","udp://zer0day.ch:1337"],"infoHash":"9c362109bb367ad7090eb9601120eef41af260cc","infoHashBuffer":{"type":"Buffer","data":[156,54,33,9,187,54,122,215,9,14,185,96,17,32,238,244,26,242,96,204]},"name":"Love Season 1-2 S01-S02 1080p WEBRip x264-MiXED [RiCK]","announce":["udp://exodus.desync.com:6969","udp://open.demonii.com:1337","udp://tracker.coppersurfer.tk:6969","udp://tracker.leechers-paradise.org:6969","udp://zer0day.ch:1337"],"urlList":[]}}